<svg width="27" height="11" viewBox="0 0 27 11" fill="none" xmlns="http://www.w3.org/2000/svg">
<path d="M8.47 3.07C8.19933 2.50067 7.80733 2.062 7.294 1.754C6.78067 1.43667 6.18333 1.278 5.502 1.278C4.82067 1.278 4.20467 1.43667 3.654 1.754C3.11267 2.062 2.68333 2.51 2.366 3.098C2.058 3.67667 1.904 4.34867 1.904 5.114C1.904 5.87933 2.058 6.55133 2.366 7.13C2.68333 7.70867 3.11267 8.15667 3.654 8.474C4.20467 8.782 4.82067 8.936 5.502 8.936C6.454 8.936 7.238 8.65133 7.854 8.082C8.47 7.51267 8.82933 6.74267 8.932 5.772H5.04V4.736H10.29V5.716C10.2153 6.51867 9.96333 7.256 9.534 7.928C9.10467 8.59067 8.54 9.118 7.84 9.51C7.14 9.89267 6.36067 10.084 5.502 10.084C4.59667 10.084 3.77067 9.874 3.024 9.454C2.27733 9.02467 1.68467 8.432 1.246 7.676C0.816667 6.92 0.602 6.066 0.602 5.114C0.602 4.162 0.816667 3.308 1.246 2.552C1.68467 1.78667 2.27733 1.194 3.024 0.773999C3.77067 0.344666 4.59667 0.129999 5.502 0.129999C6.538 0.129999 7.45267 0.386666 8.246 0.899999C9.04867 1.41333 9.632 2.13667 9.996 3.07H8.47ZM13.2205 0.242V6.416C13.2205 7.284 13.4305 7.928 13.8505 8.348C14.2798 8.768 14.8725 8.978 15.6285 8.978C16.3752 8.978 16.9585 8.768 17.3785 8.348C17.8078 7.928 18.0225 7.284 18.0225 6.416V0.242H19.2965V6.402C19.2965 7.214 19.1332 7.9 18.8065 8.46C18.4798 9.01067 18.0365 9.42133 17.4765 9.692C16.9258 9.96267 16.3052 10.098 15.6145 10.098C14.9238 10.098 14.2985 9.96267 13.7385 9.692C13.1878 9.42133 12.7492 9.01067 12.4225 8.46C12.1052 7.9 11.9465 7.214 11.9465 6.402V0.242H13.2205ZM26.3358 0.242V7.452C26.3358 8.25467 26.0884 8.89867 25.5938 9.384C25.0991 9.86 24.4458 10.098 23.6338 10.098C22.8124 10.098 22.1544 9.85533 21.6598 9.37C21.1651 8.87533 20.9178 8.20333 20.9178 7.354H22.1917C22.2011 7.83 22.3224 8.21733 22.5558 8.516C22.7984 8.81467 23.1578 8.964 23.6338 8.964C24.1098 8.964 24.4644 8.824 24.6978 8.544C24.9311 8.25467 25.0478 7.89067 25.0478 7.452V0.242H26.3358Z" fill="#474646"/>
</svg>
