<svg width="137" height="15" viewBox="0 0 137 15" fill="none" xmlns="http://www.w3.org/2000/svg">
<path d="M7.596 1.242V11H6.322V6.576H1.352V11H0.0780001V1.242H1.352V5.526H6.322V1.242H7.596ZM10.4294 2.082C10.1867 2.082 9.98136 1.998 9.81336 1.83C9.64536 1.662 9.56136 1.45667 9.56136 1.214C9.56136 0.971333 9.64536 0.766 9.81336 0.598C9.98136 0.43 10.1867 0.345999 10.4294 0.345999C10.6627 0.345999 10.8587 0.43 11.0174 0.598C11.1854 0.766 11.2694 0.971333 11.2694 1.214C11.2694 1.45667 11.1854 1.662 11.0174 1.83C10.8587 1.998 10.6627 2.082 10.4294 2.082ZM11.0454 3.328V11H9.77136V3.328H11.0454ZM14.4907 4.742C14.7427 4.30333 15.116 3.93933 15.6107 3.65C16.1147 3.35133 16.698 3.202 17.3607 3.202C18.042 3.202 18.658 3.36533 19.2087 3.692C19.7687 4.01867 20.2073 4.48067 20.5247 5.078C20.842 5.666 21.0007 6.352 21.0007 7.136C21.0007 7.91067 20.842 8.60133 20.5247 9.208C20.2073 9.81467 19.7687 10.286 19.2087 10.622C18.658 10.958 18.042 11.126 17.3607 11.126C16.7073 11.126 16.1287 10.9813 15.6247 10.692C15.13 10.3933 14.752 10.0247 14.4907 9.586V14.64H13.2167V3.328H14.4907V4.742ZM19.6987 7.136C19.6987 6.55733 19.582 6.05333 19.3487 5.624C19.1153 5.19467 18.798 4.868 18.3967 4.644C18.0047 4.42 17.5707 4.308 17.0947 4.308C16.628 4.308 16.194 4.42467 15.7927 4.658C15.4007 4.882 15.0833 5.21333 14.8407 5.652C14.6073 6.08133 14.4907 6.58067 14.4907 7.15C14.4907 7.72867 14.6073 8.23733 14.8407 8.676C15.0833 9.10533 15.4007 9.43667 15.7927 9.67C16.194 9.894 16.628 10.006 17.0947 10.006C17.5707 10.006 18.0047 9.894 18.3967 9.67C18.798 9.43667 19.1153 9.10533 19.3487 8.676C19.582 8.23733 19.6987 7.724 19.6987 7.136ZM25.3936 11.126C24.8056 11.126 24.2783 11.028 23.8116 10.832C23.3449 10.6267 22.9763 10.3467 22.7056 9.992C22.4349 9.628 22.2856 9.21267 22.2576 8.746H23.5736C23.6109 9.12867 23.7883 9.44133 24.1056 9.684C24.4323 9.92667 24.8569 10.048 25.3796 10.048C25.8649 10.048 26.2476 9.94067 26.5276 9.726C26.8076 9.51133 26.9476 9.24067 26.9476 8.914C26.9476 8.578 26.7983 8.33067 26.4996 8.172C26.2009 8.004 25.7389 7.84067 25.1136 7.682C24.5443 7.53267 24.0776 7.38333 23.7136 7.234C23.3589 7.07533 23.0509 6.84667 22.7896 6.548C22.5376 6.24 22.4116 5.83867 22.4116 5.344C22.4116 4.952 22.5283 4.59267 22.7616 4.266C22.9949 3.93933 23.3263 3.68267 23.7556 3.496C24.1849 3.3 24.6749 3.202 25.2256 3.202C26.0749 3.202 26.7609 3.41667 27.2836 3.846C27.8063 4.27533 28.0863 4.86333 28.1236 5.61H26.8496C26.8216 5.20867 26.6583 4.88667 26.3596 4.644C26.0703 4.40133 25.6783 4.28 25.1836 4.28C24.7263 4.28 24.3623 4.378 24.0916 4.574C23.8209 4.77 23.6856 5.02667 23.6856 5.344C23.6856 5.596 23.7649 5.806 23.9236 5.974C24.0916 6.13267 24.2969 6.26333 24.5396 6.366C24.7916 6.45933 25.1369 6.56667 25.5756 6.688C26.1263 6.83733 26.5743 6.98667 26.9196 7.136C27.2649 7.276 27.5589 7.49067 27.8016 7.78C28.0536 8.06933 28.1843 8.44733 28.1936 8.914C28.1936 9.334 28.0769 9.712 27.8436 10.048C27.6103 10.384 27.2789 10.65 26.8496 10.846C26.4296 11.0327 25.9443 11.126 25.3936 11.126ZM31.5461 4.378V8.9C31.5461 9.27333 31.6254 9.53933 31.7841 9.698C31.9427 9.84733 32.2181 9.922 32.6101 9.922H33.5481V11H32.4001C31.6907 11 31.1587 10.8367 30.8041 10.51C30.4494 10.1833 30.2721 9.64667 30.2721 8.9V4.378H29.2781V3.328H30.2721V1.396H31.5461V3.328H33.5481V4.378H31.5461ZM42.0917 6.87C42.0917 7.11267 42.0777 7.36933 42.0497 7.64H35.9177C35.9643 8.396 36.221 8.98867 36.6877 9.418C37.1637 9.838 37.7377 10.048 38.4097 10.048C38.9603 10.048 39.4177 9.922 39.7817 9.67C40.155 9.40867 40.4163 9.06333 40.5657 8.634H41.9377C41.7323 9.37133 41.3217 9.97333 40.7057 10.44C40.0897 10.8973 39.3243 11.126 38.4097 11.126C37.6817 11.126 37.0283 10.9627 36.4497 10.636C35.8803 10.3093 35.4323 9.84733 35.1057 9.25C34.779 8.64333 34.6157 7.94333 34.6157 7.15C34.6157 6.35667 34.7743 5.66133 35.0917 5.064C35.409 4.46667 35.8523 4.00933 36.4217 3.692C37.0003 3.36533 37.663 3.202 38.4097 3.202C39.1377 3.202 39.7817 3.36067 40.3417 3.678C40.9017 3.99533 41.331 4.434 41.6297 4.994C41.9377 5.54467 42.0917 6.17 42.0917 6.87ZM40.7757 6.604C40.7757 6.11867 40.6683 5.70333 40.4537 5.358C40.239 5.00333 39.945 4.73733 39.5717 4.56C39.2077 4.37333 38.8017 4.28 38.3537 4.28C37.7097 4.28 37.159 4.48533 36.7017 4.896C36.2537 5.30667 35.997 5.876 35.9317 6.604H40.7757ZM45.0473 4.574C45.2713 4.13533 45.5886 3.79467 45.9993 3.552C46.4193 3.30933 46.928 3.188 47.5253 3.188V4.504H47.1893C45.7613 4.504 45.0473 5.27867 45.0473 6.828V11H43.7733V3.328H45.0473V4.574ZM51.712 11.126C51.124 11.126 50.5966 11.028 50.13 10.832C49.6633 10.6267 49.2946 10.3467 49.024 9.992C48.7533 9.628 48.604 9.21267 48.576 8.746H49.892C49.9293 9.12867 50.1066 9.44133 50.424 9.684C50.7506 9.92667 51.1753 10.048 51.698 10.048C52.1833 10.048 52.566 9.94067 52.846 9.726C53.126 9.51133 53.266 9.24067 53.266 8.914C53.266 8.578 53.1166 8.33067 52.818 8.172C52.5193 8.004 52.0573 7.84067 51.432 7.682C50.8626 7.53267 50.396 7.38333 50.032 7.234C49.6773 7.07533 49.3693 6.84667 49.108 6.548C48.856 6.24 48.73 5.83867 48.73 5.344C48.73 4.952 48.8466 4.59267 49.08 4.266C49.3133 3.93933 49.6446 3.68267 50.074 3.496C50.5033 3.3 50.9933 3.202 51.544 3.202C52.3933 3.202 53.0793 3.41667 53.602 3.846C54.1246 4.27533 54.4046 4.86333 54.442 5.61H53.168C53.14 5.20867 52.9766 4.88667 52.678 4.644C52.3886 4.40133 51.9966 4.28 51.502 4.28C51.0446 4.28 50.6806 4.378 50.41 4.574C50.1393 4.77 50.004 5.02667 50.004 5.344C50.004 5.596 50.0833 5.806 50.242 5.974C50.41 6.13267 50.6153 6.26333 50.858 6.366C51.11 6.45933 51.4553 6.56667 51.894 6.688C52.4446 6.83733 52.8926 6.98667 53.238 7.136C53.5833 7.276 53.8773 7.49067 54.12 7.78C54.372 8.06933 54.5026 8.44733 54.512 8.914C54.512 9.334 54.3953 9.712 54.162 10.048C53.9286 10.384 53.5973 10.65 53.168 10.846C52.748 11.0327 52.2626 11.126 51.712 11.126ZM61.3168 4.742C61.5688 4.30333 61.9422 3.93933 62.4368 3.65C62.9408 3.35133 63.5242 3.202 64.1868 3.202C64.8682 3.202 65.4842 3.36533 66.0348 3.692C66.5948 4.01867 67.0335 4.48067 67.3508 5.078C67.6682 5.666 67.8268 6.352 67.8268 7.136C67.8268 7.91067 67.6682 8.60133 67.3508 9.208C67.0335 9.81467 66.5948 10.286 66.0348 10.622C65.4842 10.958 64.8682 11.126 64.1868 11.126C63.5335 11.126 62.9548 10.9813 62.4508 10.692C61.9562 10.3933 61.5782 10.0247 61.3168 9.586V14.64H60.0428V3.328H61.3168V4.742ZM66.5248 7.136C66.5248 6.55733 66.4082 6.05333 66.1748 5.624C65.9415 5.19467 65.6242 4.868 65.2228 4.644C64.8308 4.42 64.3968 4.308 63.9208 4.308C63.4542 4.308 63.0202 4.42467 62.6188 4.658C62.2268 4.882 61.9095 5.21333 61.6668 5.652C61.4335 6.08133 61.3168 6.58067 61.3168 7.15C61.3168 7.72867 61.4335 8.23733 61.6668 8.676C61.9095 9.10533 62.2268 9.43667 62.6188 9.67C63.0202 9.894 63.4542 10.006 63.9208 10.006C64.3968 10.006 64.8308 9.894 65.2228 9.67C65.6242 9.43667 65.9415 9.10533 66.1748 8.676C66.4082 8.23733 66.5248 7.724 66.5248 7.136ZM72.8498 11.126C72.1311 11.126 71.4778 10.9627 70.8898 10.636C70.3111 10.3093 69.8538 9.84733 69.5178 9.25C69.1911 8.64333 69.0278 7.94333 69.0278 7.15C69.0278 6.366 69.1958 5.67533 69.5318 5.078C69.8771 4.47133 70.3438 4.00933 70.9318 3.692C71.5198 3.36533 72.1778 3.202 72.9058 3.202C73.6338 3.202 74.2918 3.36533 74.8798 3.692C75.4678 4.00933 75.9298 4.46667 76.2658 5.064C76.6111 5.66133 76.7838 6.35667 76.7838 7.15C76.7838 7.94333 76.6064 8.64333 76.2518 9.25C75.9064 9.84733 75.4351 10.3093 74.8378 10.636C74.2404 10.9627 73.5778 11.126 72.8498 11.126ZM72.8498 10.006C73.3071 10.006 73.7364 9.89867 74.1378 9.684C74.5391 9.46933 74.8611 9.14733 75.1038 8.718C75.3558 8.28867 75.4818 7.766 75.4818 7.15C75.4818 6.534 75.3604 6.01133 75.1178 5.582C74.8751 5.15267 74.5578 4.83533 74.1658 4.63C73.7738 4.41533 73.3491 4.308 72.8918 4.308C72.4251 4.308 71.9958 4.41533 71.6038 4.63C71.2211 4.83533 70.9131 5.15267 70.6798 5.582C70.4464 6.01133 70.3298 6.534 70.3298 7.15C70.3298 7.77533 70.4418 8.30267 70.6658 8.732C70.8991 9.16133 71.2071 9.48333 71.5898 9.698C71.9724 9.90333 72.3924 10.006 72.8498 10.006ZM82.1969 3.188C83.1302 3.188 83.8862 3.47267 84.4649 4.042C85.0435 4.602 85.3329 5.414 85.3329 6.478V11H84.0729V6.66C84.0729 5.89467 83.8815 5.31133 83.4989 4.91C83.1162 4.49933 82.5935 4.294 81.9309 4.294C81.2589 4.294 80.7222 4.504 80.3209 4.924C79.9289 5.344 79.7329 5.95533 79.7329 6.758V11H78.4589V3.328H79.7329V4.42C79.9849 4.028 80.3255 3.72467 80.7549 3.51C81.1935 3.29533 81.6742 3.188 82.1969 3.188ZM88.9679 4.378V8.9C88.9679 9.27333 89.0473 9.53933 89.2059 9.698C89.3646 9.84733 89.6399 9.922 90.0319 9.922H90.9699V11H89.8219C89.1126 11 88.5806 10.8367 88.2259 10.51C87.8713 10.1833 87.6939 9.64667 87.6939 8.9V4.378H86.6999V3.328H87.6939V1.396H88.9679V3.328H90.9699V4.378H88.9679ZM95.8595 11.126C95.1409 11.126 94.4875 10.9627 93.8995 10.636C93.3209 10.3093 92.8635 9.84733 92.5275 9.25C92.2009 8.64333 92.0375 7.94333 92.0375 7.15C92.0375 6.366 92.2055 5.67533 92.5415 5.078C92.8869 4.47133 93.3535 4.00933 93.9415 3.692C94.5295 3.36533 95.1875 3.202 95.9155 3.202C96.6435 3.202 97.3015 3.36533 97.8895 3.692C98.4775 4.00933 98.9395 4.46667 99.2755 5.064C99.6209 5.66133 99.7935 6.35667 99.7935 7.15C99.7935 7.94333 99.6162 8.64333 99.2615 9.25C98.9162 9.84733 98.4449 10.3093 97.8475 10.636C97.2502 10.9627 96.5875 11.126 95.8595 11.126ZM95.8595 10.006C96.3169 10.006 96.7462 9.89867 97.1475 9.684C97.5489 9.46933 97.8709 9.14733 98.1135 8.718C98.3655 8.28867 98.4915 7.766 98.4915 7.15C98.4915 6.534 98.3702 6.01133 98.1275 5.582C97.8849 5.15267 97.5675 4.83533 97.1755 4.63C96.7835 4.41533 96.3589 4.308 95.9015 4.308C95.4349 4.308 95.0055 4.41533 94.6135 4.63C94.2309 4.83533 93.9229 5.15267 93.6895 5.582C93.4562 6.01133 93.3395 6.534 93.3395 7.15C93.3395 7.77533 93.4515 8.30267 93.6755 8.732C93.9089 9.16133 94.2169 9.48333 94.5995 9.698C94.9822 9.90333 95.4022 10.006 95.8595 10.006ZM110.115 1.242V8.452C110.115 9.25467 109.868 9.89867 109.373 10.384C108.878 10.86 108.225 11.098 107.413 11.098C106.592 11.098 105.934 10.8553 105.439 10.37C104.944 9.87533 104.697 9.20333 104.697 8.354H105.971C105.98 8.83 106.102 9.21733 106.335 9.516C106.578 9.81467 106.937 9.964 107.413 9.964C107.889 9.964 108.244 9.824 108.477 9.544C108.71 9.25467 108.827 8.89067 108.827 8.452V1.242H110.115ZM115.971 11.126C115.252 11.126 114.599 10.9627 114.011 10.636C113.432 10.3093 112.975 9.84733 112.639 9.25C112.312 8.64333 112.149 7.94333 112.149 7.15C112.149 6.366 112.317 5.67533 112.653 5.078C112.998 4.47133 113.465 4.00933 114.053 3.692C114.641 3.36533 115.299 3.202 116.027 3.202C116.755 3.202 117.413 3.36533 118.001 3.692C118.589 4.00933 119.051 4.46667 119.387 5.064C119.732 5.66133 119.905 6.35667 119.905 7.15C119.905 7.94333 119.728 8.64333 119.373 9.25C119.028 9.84733 118.556 10.3093 117.959 10.636C117.362 10.9627 116.699 11.126 115.971 11.126ZM115.971 10.006C116.428 10.006 116.858 9.89867 117.259 9.684C117.66 9.46933 117.982 9.14733 118.225 8.718C118.477 8.28867 118.603 7.766 118.603 7.15C118.603 6.534 118.482 6.01133 118.239 5.582C117.996 5.15267 117.679 4.83533 117.287 4.63C116.895 4.41533 116.47 4.308 116.013 4.308C115.546 4.308 115.117 4.41533 114.725 4.63C114.342 4.83533 114.034 5.15267 113.801 5.582C113.568 6.01133 113.451 6.534 113.451 7.15C113.451 7.77533 113.563 8.30267 113.787 8.732C114.02 9.16133 114.328 9.48333 114.711 9.698C115.094 9.90333 115.514 10.006 115.971 10.006ZM122.854 4.756C123.115 4.29867 123.498 3.92533 124.002 3.636C124.506 3.34667 125.08 3.202 125.724 3.202C126.415 3.202 127.035 3.36533 127.586 3.692C128.137 4.01867 128.571 4.48067 128.888 5.078C129.205 5.666 129.364 6.352 129.364 7.136C129.364 7.91067 129.205 8.60133 128.888 9.208C128.571 9.81467 128.132 10.286 127.572 10.622C127.021 10.958 126.405 11.126 125.724 11.126C125.061 11.126 124.478 10.9813 123.974 10.692C123.479 10.4027 123.106 10.034 122.854 9.586V11H121.58V0.64H122.854V4.756ZM128.062 7.136C128.062 6.55733 127.945 6.05333 127.712 5.624C127.479 5.19467 127.161 4.868 126.76 4.644C126.368 4.42 125.934 4.308 125.458 4.308C124.991 4.308 124.557 4.42467 124.156 4.658C123.764 4.882 123.447 5.21333 123.204 5.652C122.971 6.08133 122.854 6.58067 122.854 7.15C122.854 7.72867 122.971 8.23733 123.204 8.676C123.447 9.10533 123.764 9.43667 124.156 9.67C124.557 9.894 124.991 10.006 125.458 10.006C125.934 10.006 126.368 9.894 126.76 9.67C127.161 9.43667 127.479 9.10533 127.712 8.676C127.945 8.23733 128.062 7.724 128.062 7.136ZM133.757 11.126C133.169 11.126 132.642 11.028 132.175 10.832C131.708 10.6267 131.34 10.3467 131.069 9.992C130.798 9.628 130.649 9.21267 130.621 8.746H131.937C131.974 9.12867 132.152 9.44133 132.469 9.684C132.796 9.92667 133.22 10.048 133.743 10.048C134.228 10.048 134.611 9.94067 134.891 9.726C135.171 9.51133 135.311 9.24067 135.311 8.914C135.311 8.578 135.162 8.33067 134.863 8.172C134.564 8.004 134.102 7.84067 133.477 7.682C132.908 7.53267 132.441 7.38333 132.077 7.234C131.722 7.07533 131.414 6.84667 131.153 6.548C130.901 6.24 130.775 5.83867 130.775 5.344C130.775 4.952 130.892 4.59267 131.125 4.266C131.358 3.93933 131.69 3.68267 132.119 3.496C132.548 3.3 133.038 3.202 133.589 3.202C134.438 3.202 135.124 3.41667 135.647 3.846C136.17 4.27533 136.45 4.86333 136.487 5.61H135.213C135.185 5.20867 135.022 4.88667 134.723 4.644C134.434 4.40133 134.042 4.28 133.547 4.28C133.09 4.28 132.726 4.378 132.455 4.574C132.184 4.77 132.049 5.02667 132.049 5.344C132.049 5.596 132.128 5.806 132.287 5.974C132.455 6.13267 132.66 6.26333 132.903 6.366C133.155 6.45933 133.5 6.56667 133.939 6.688C134.49 6.83733 134.938 6.98667 135.283 7.136C135.628 7.276 135.922 7.49067 136.165 7.78C136.417 8.06933 136.548 8.44733 136.557 8.914C136.557 9.334 136.44 9.712 136.207 10.048C135.974 10.384 135.642 10.65 135.213 10.846C134.793 11.0327 134.308 11.126 133.757 11.126Z" fill="#474646"/>
</svg>
