<svg width="126" height="15" viewBox="0 0 126 15" fill="none" xmlns="http://www.w3.org/2000/svg">
<path d="M1.352 9.964H4.768V11H0.0780001V1.242H1.352V9.964ZM5.64497 7.136C5.64497 6.352 5.80364 5.666 6.12097 5.078C6.4383 4.48067 6.8723 4.01867 7.42297 3.692C7.98297 3.36533 8.60364 3.202 9.28497 3.202C9.95697 3.202 10.5403 3.34667 11.035 3.636C11.5296 3.92533 11.8983 4.28933 12.141 4.728V3.328H13.429V11H12.141V9.572C11.889 10.02 11.511 10.3933 11.007 10.692C10.5123 10.9813 9.93364 11.126 9.27097 11.126C8.58964 11.126 7.97364 10.958 7.42297 10.622C6.8723 10.286 6.4383 9.81467 6.12097 9.208C5.80364 8.60133 5.64497 7.91067 5.64497 7.136ZM12.141 7.15C12.141 6.57133 12.0243 6.06733 11.791 5.638C11.5576 5.20867 11.2403 4.882 10.839 4.658C10.447 4.42467 10.013 4.308 9.53697 4.308C9.06097 4.308 8.62697 4.42 8.23497 4.644C7.84297 4.868 7.5303 5.19467 7.29697 5.624C7.06364 6.05333 6.94697 6.55733 6.94697 7.136C6.94697 7.724 7.06364 8.23733 7.29697 8.676C7.5303 9.10533 7.84297 9.43667 8.23497 9.67C8.62697 9.894 9.06097 10.006 9.53697 10.006C10.013 10.006 10.447 9.894 10.839 9.67C11.2403 9.43667 11.5576 9.10533 11.791 8.676C12.0243 8.23733 12.141 7.72867 12.141 7.15ZM22.1899 3.328L17.5699 14.612H16.2539L17.7659 10.916L14.6719 3.328H16.0859L18.4939 9.544L20.8739 3.328H22.1899ZM30.4706 6.87C30.4706 7.11267 30.4566 7.36933 30.4286 7.64H24.2966C24.3432 8.396 24.5999 8.98867 25.0666 9.418C25.5426 9.838 26.1166 10.048 26.7886 10.048C27.3392 10.048 27.7966 9.922 28.1606 9.67C28.5339 9.40867 28.7952 9.06333 28.9446 8.634H30.3166C30.1112 9.37133 29.7006 9.97333 29.0846 10.44C28.4686 10.8973 27.7032 11.126 26.7886 11.126C26.0606 11.126 25.4072 10.9627 24.8286 10.636C24.2592 10.3093 23.8112 9.84733 23.4846 9.25C23.1579 8.64333 22.9946 7.94333 22.9946 7.15C22.9946 6.35667 23.1532 5.66133 23.4706 5.064C23.7879 4.46667 24.2312 4.00933 24.8006 3.692C25.3792 3.36533 26.0419 3.202 26.7886 3.202C27.5166 3.202 28.1606 3.36067 28.7206 3.678C29.2806 3.99533 29.7099 4.434 30.0086 4.994C30.3166 5.54467 30.4706 6.17 30.4706 6.87ZM29.1546 6.604C29.1546 6.11867 29.0472 5.70333 28.8326 5.358C28.6179 5.00333 28.3239 4.73733 27.9506 4.56C27.5866 4.37333 27.1806 4.28 26.7326 4.28C26.0886 4.28 25.5379 4.48533 25.0806 4.896C24.6326 5.30667 24.3759 5.876 24.3106 6.604H29.1546ZM33.4262 4.574C33.6502 4.13533 33.9676 3.79467 34.3782 3.552C34.7982 3.30933 35.3069 3.188 35.9042 3.188V4.504H35.5682C34.1402 4.504 33.4262 5.27867 33.4262 6.828V11H32.1522V3.328H33.4262V4.574ZM40.0909 11.126C39.5029 11.126 38.9755 11.028 38.5089 10.832C38.0422 10.6267 37.6735 10.3467 37.4029 9.992C37.1322 9.628 36.9829 9.21267 36.9549 8.746H38.2709C38.3082 9.12867 38.4855 9.44133 38.8029 9.684C39.1295 9.92667 39.5542 10.048 40.0769 10.048C40.5622 10.048 40.9449 9.94067 41.2249 9.726C41.5049 9.51133 41.6449 9.24067 41.6449 8.914C41.6449 8.578 41.4955 8.33067 41.1969 8.172C40.8982 8.004 40.4362 7.84067 39.8109 7.682C39.2415 7.53267 38.7749 7.38333 38.4109 7.234C38.0562 7.07533 37.7482 6.84667 37.4869 6.548C37.2349 6.24 37.1089 5.83867 37.1089 5.344C37.1089 4.952 37.2255 4.59267 37.4589 4.266C37.6922 3.93933 38.0235 3.68267 38.4529 3.496C38.8822 3.3 39.3722 3.202 39.9229 3.202C40.7722 3.202 41.4582 3.41667 41.9809 3.846C42.5035 4.27533 42.7835 4.86333 42.8209 5.61H41.5469C41.5189 5.20867 41.3555 4.88667 41.0569 4.644C40.7675 4.40133 40.3755 4.28 39.8809 4.28C39.4235 4.28 39.0595 4.378 38.7889 4.574C38.5182 4.77 38.3829 5.02667 38.3829 5.344C38.3829 5.596 38.4622 5.806 38.6209 5.974C38.7889 6.13267 38.9942 6.26333 39.2369 6.366C39.4889 6.45933 39.8342 6.56667 40.2729 6.688C40.8235 6.83733 41.2715 6.98667 41.6169 7.136C41.9622 7.276 42.2562 7.49067 42.4989 7.78C42.7509 8.06933 42.8815 8.44733 42.8909 8.914C42.8909 9.334 42.7742 9.712 42.5409 10.048C42.3075 10.384 41.9762 10.65 41.5469 10.846C41.1269 11.0327 40.6415 11.126 40.0909 11.126ZM49.6958 4.742C49.9478 4.30333 50.3211 3.93933 50.8158 3.65C51.3198 3.35133 51.9031 3.202 52.5658 3.202C53.2471 3.202 53.8631 3.36533 54.4137 3.692C54.9737 4.01867 55.4124 4.48067 55.7298 5.078C56.0471 5.666 56.2058 6.352 56.2058 7.136C56.2058 7.91067 56.0471 8.60133 55.7298 9.208C55.4124 9.81467 54.9737 10.286 54.4137 10.622C53.8631 10.958 53.2471 11.126 52.5658 11.126C51.9124 11.126 51.3338 10.9813 50.8298 10.692C50.3351 10.3933 49.9571 10.0247 49.6958 9.586V14.64H48.4218V3.328H49.6958V4.742ZM54.9038 7.136C54.9038 6.55733 54.7871 6.05333 54.5538 5.624C54.3204 5.19467 54.0031 4.868 53.6018 4.644C53.2098 4.42 52.7758 4.308 52.2998 4.308C51.8331 4.308 51.3991 4.42467 50.9978 4.658C50.6058 4.882 50.2884 5.21333 50.0458 5.652C49.8124 6.08133 49.6958 6.58067 49.6958 7.15C49.6958 7.72867 49.8124 8.23733 50.0458 8.676C50.2884 9.10533 50.6058 9.43667 50.9978 9.67C51.3991 9.894 51.8331 10.006 52.2998 10.006C52.7758 10.006 53.2098 9.894 53.6018 9.67C54.0031 9.43667 54.3204 9.10533 54.5538 8.676C54.7871 8.23733 54.9038 7.724 54.9038 7.136ZM61.2287 11.126C60.51 11.126 59.8567 10.9627 59.2687 10.636C58.69 10.3093 58.2327 9.84733 57.8967 9.25C57.57 8.64333 57.4067 7.94333 57.4067 7.15C57.4067 6.366 57.5747 5.67533 57.9107 5.078C58.256 4.47133 58.7227 4.00933 59.3107 3.692C59.8987 3.36533 60.5567 3.202 61.2847 3.202C62.0127 3.202 62.6707 3.36533 63.2587 3.692C63.8467 4.00933 64.3087 4.46667 64.6447 5.064C64.99 5.66133 65.1627 6.35667 65.1627 7.15C65.1627 7.94333 64.9854 8.64333 64.6307 9.25C64.2854 9.84733 63.814 10.3093 63.2167 10.636C62.6194 10.9627 61.9567 11.126 61.2287 11.126ZM61.2287 10.006C61.686 10.006 62.1154 9.89867 62.5167 9.684C62.918 9.46933 63.24 9.14733 63.4827 8.718C63.7347 8.28867 63.8607 7.766 63.8607 7.15C63.8607 6.534 63.7394 6.01133 63.4967 5.582C63.254 5.15267 62.9367 4.83533 62.5447 4.63C62.1527 4.41533 61.728 4.308 61.2707 4.308C60.804 4.308 60.3747 4.41533 59.9827 4.63C59.6 4.83533 59.292 5.15267 59.0587 5.582C58.8254 6.01133 58.7087 6.534 58.7087 7.15C58.7087 7.77533 58.8207 8.30267 59.0447 8.732C59.278 9.16133 59.586 9.48333 59.9687 9.698C60.3514 9.90333 60.7714 10.006 61.2287 10.006ZM70.5758 3.188C71.5091 3.188 72.2651 3.47267 72.8438 4.042C73.4224 4.602 73.7118 5.414 73.7118 6.478V11H72.4518V6.66C72.4518 5.89467 72.2604 5.31133 71.8778 4.91C71.4951 4.49933 70.9724 4.294 70.3098 4.294C69.6378 4.294 69.1011 4.504 68.6998 4.924C68.3078 5.344 68.1118 5.95533 68.1118 6.758V11H66.8378V3.328H68.1118V4.42C68.3638 4.028 68.7044 3.72467 69.1338 3.51C69.5724 3.29533 70.0531 3.188 70.5758 3.188ZM77.3468 4.378V8.9C77.3468 9.27333 77.4262 9.53933 77.5848 9.698C77.7435 9.84733 78.0188 9.922 78.4108 9.922H79.3488V11H78.2008C77.4915 11 76.9595 10.8367 76.6048 10.51C76.2502 10.1833 76.0728 9.64667 76.0728 8.9V4.378H75.0788V3.328H76.0728V1.396H77.3468V3.328H79.3488V4.378H77.3468ZM84.2385 11.126C83.5198 11.126 82.8665 10.9627 82.2785 10.636C81.6998 10.3093 81.2425 9.84733 80.9065 9.25C80.5798 8.64333 80.4165 7.94333 80.4165 7.15C80.4165 6.366 80.5845 5.67533 80.9205 5.078C81.2658 4.47133 81.7325 4.00933 82.3205 3.692C82.9085 3.36533 83.5665 3.202 84.2945 3.202C85.0225 3.202 85.6805 3.36533 86.2685 3.692C86.8565 4.00933 87.3185 4.46667 87.6545 5.064C87.9998 5.66133 88.1725 6.35667 88.1725 7.15C88.1725 7.94333 87.9951 8.64333 87.6405 9.25C87.2951 9.84733 86.8238 10.3093 86.2265 10.636C85.6291 10.9627 84.9665 11.126 84.2385 11.126ZM84.2385 10.006C84.6958 10.006 85.1251 9.89867 85.5265 9.684C85.9278 9.46933 86.2498 9.14733 86.4925 8.718C86.7445 8.28867 86.8705 7.766 86.8705 7.15C86.8705 6.534 86.7491 6.01133 86.5065 5.582C86.2638 5.15267 85.9465 4.83533 85.5545 4.63C85.1625 4.41533 84.7378 4.308 84.2805 4.308C83.8138 4.308 83.3845 4.41533 82.9925 4.63C82.6098 4.83533 82.3018 5.15267 82.0685 5.582C81.8351 6.01133 81.7185 6.534 81.7185 7.15C81.7185 7.77533 81.8305 8.30267 82.0545 8.732C82.2878 9.16133 82.5958 9.48333 82.9785 9.698C83.3611 9.90333 83.7811 10.006 84.2385 10.006ZM99.586 1.242V2.278H96.926V11H95.652V2.278H92.978V1.242H99.586ZM108.154 6.87C108.154 7.11267 108.14 7.36933 108.112 7.64H101.98C102.027 8.396 102.284 8.98867 102.75 9.418C103.226 9.838 103.8 10.048 104.472 10.048C105.023 10.048 105.48 9.922 105.844 9.67C106.218 9.40867 106.479 9.06333 106.628 8.634H108C107.795 9.37133 107.384 9.97333 106.768 10.44C106.152 10.8973 105.387 11.126 104.472 11.126C103.744 11.126 103.091 10.9627 102.512 10.636C101.943 10.3093 101.495 9.84733 101.168 9.25C100.842 8.64333 100.678 7.94333 100.678 7.15C100.678 6.35667 100.837 5.66133 101.154 5.064C101.472 4.46667 101.915 4.00933 102.484 3.692C103.063 3.36533 103.726 3.202 104.472 3.202C105.2 3.202 105.844 3.36067 106.404 3.678C106.964 3.99533 107.394 4.434 107.692 4.994C108 5.54467 108.154 6.17 108.154 6.87ZM106.838 6.604C106.838 6.11867 106.731 5.70333 106.516 5.358C106.302 5.00333 106.008 4.73733 105.634 4.56C105.27 4.37333 104.864 4.28 104.416 4.28C103.772 4.28 103.222 4.48533 102.764 4.896C102.316 5.30667 102.06 5.876 101.994 6.604H106.838ZM109.36 7.15C109.36 6.35667 109.518 5.666 109.836 5.078C110.153 4.48067 110.592 4.01867 111.152 3.692C111.721 3.36533 112.37 3.202 113.098 3.202C114.04 3.202 114.815 3.43067 115.422 3.888C116.038 4.34533 116.444 4.98 116.64 5.792H115.268C115.137 5.32533 114.88 4.95667 114.498 4.686C114.124 4.41533 113.658 4.28 113.098 4.28C112.37 4.28 111.782 4.532 111.334 5.036C110.886 5.53067 110.662 6.23533 110.662 7.15C110.662 8.074 110.886 8.788 111.334 9.292C111.782 9.796 112.37 10.048 113.098 10.048C113.658 10.048 114.124 9.91733 114.498 9.656C114.871 9.39467 115.128 9.02133 115.268 8.536H116.64C116.434 9.32 116.024 9.95 115.408 10.426C114.792 10.8927 114.022 11.126 113.098 11.126C112.37 11.126 111.721 10.9627 111.152 10.636C110.592 10.3093 110.153 9.84733 109.836 9.25C109.518 8.65267 109.36 7.95267 109.36 7.15ZM122.148 3.188C122.726 3.188 123.249 3.314 123.716 3.566C124.182 3.80867 124.546 4.17733 124.808 4.672C125.078 5.16667 125.214 5.76867 125.214 6.478V11H123.954V6.66C123.954 5.89467 123.762 5.31133 123.38 4.91C122.997 4.49933 122.474 4.294 121.812 4.294C121.14 4.294 120.603 4.504 120.202 4.924C119.81 5.344 119.614 5.95533 119.614 6.758V11H118.34V0.64H119.614V4.42C119.866 4.028 120.211 3.72467 120.65 3.51C121.098 3.29533 121.597 3.188 122.148 3.188Z" fill="#474646"/>
</svg>
