<svg width="63" height="12" viewBox="0 0 63 12" fill="none" xmlns="http://www.w3.org/2000/svg">
<path d="M9.976 1.312V11H8.702V3.776L5.482 11H4.586L1.352 3.762V11H0.0780001V1.312H1.45L5.034 9.32L8.618 1.312H9.976ZM18.9406 3.328V11H17.6666V9.866C17.4239 10.258 17.0833 10.566 16.6446 10.79C16.2153 11.0047 15.7393 11.112 15.2166 11.112C14.6193 11.112 14.0826 10.9907 13.6066 10.748C13.1306 10.496 12.7526 10.1227 12.4726 9.628C12.2019 9.13333 12.0666 8.53133 12.0666 7.822V3.328H13.3266V7.654C13.3266 8.41 13.5179 8.99333 13.9006 9.404C14.2833 9.80533 14.8059 10.006 15.4686 10.006C16.1499 10.006 16.6866 9.796 17.0786 9.376C17.4706 8.956 17.6666 8.34467 17.6666 7.542V3.328H18.9406ZM23.8077 11.126C23.2197 11.126 22.6923 11.028 22.2257 10.832C21.759 10.6267 21.3903 10.3467 21.1197 9.992C20.849 9.628 20.6997 9.21267 20.6717 8.746H21.9877C22.025 9.12867 22.2023 9.44133 22.5197 9.684C22.8463 9.92667 23.271 10.048 23.7937 10.048C24.279 10.048 24.6617 9.94067 24.9417 9.726C25.2217 9.51133 25.3617 9.24067 25.3617 8.914C25.3617 8.578 25.2123 8.33067 24.9137 8.172C24.615 8.004 24.153 7.84067 23.5277 7.682C22.9583 7.53267 22.4917 7.38333 22.1277 7.234C21.773 7.07533 21.465 6.84667 21.2037 6.548C20.9517 6.24 20.8257 5.83867 20.8257 5.344C20.8257 4.952 20.9423 4.59267 21.1757 4.266C21.409 3.93933 21.7403 3.68267 22.1697 3.496C22.599 3.3 23.089 3.202 23.6397 3.202C24.489 3.202 25.175 3.41667 25.6977 3.846C26.2203 4.27533 26.5003 4.86333 26.5377 5.61H25.2637C25.2357 5.20867 25.0723 4.88667 24.7737 4.644C24.4843 4.40133 24.0923 4.28 23.5977 4.28C23.1403 4.28 22.7763 4.378 22.5057 4.574C22.235 4.77 22.0997 5.02667 22.0997 5.344C22.0997 5.596 22.179 5.806 22.3377 5.974C22.5057 6.13267 22.711 6.26333 22.9537 6.366C23.2057 6.45933 23.551 6.56667 23.9897 6.688C24.5403 6.83733 24.9883 6.98667 25.3337 7.136C25.679 7.276 25.973 7.49067 26.2157 7.78C26.4677 8.06933 26.5983 8.44733 26.6077 8.914C26.6077 9.334 26.491 9.712 26.2577 10.048C26.0243 10.384 25.693 10.65 25.2637 10.846C24.8437 11.0327 24.3583 11.126 23.8077 11.126ZM29.0641 2.082C28.8215 2.082 28.6161 1.998 28.4481 1.83C28.2801 1.662 28.1961 1.45667 28.1961 1.214C28.1961 0.971333 28.2801 0.766 28.4481 0.598C28.6161 0.43 28.8215 0.345999 29.0641 0.345999C29.2975 0.345999 29.4935 0.43 29.6521 0.598C29.8201 0.766 29.9041 0.971333 29.9041 1.214C29.9041 1.45667 29.8201 1.662 29.6521 1.83C29.4935 1.998 29.2975 2.082 29.0641 2.082ZM29.6801 3.328V11H28.4061V3.328H29.6801ZM31.3754 7.15C31.3754 6.35667 31.5341 5.666 31.8514 5.078C32.1688 4.48067 32.6074 4.01867 33.1674 3.692C33.7368 3.36533 34.3854 3.202 35.1134 3.202C36.0561 3.202 36.8308 3.43067 37.4374 3.888C38.0534 4.34533 38.4594 4.98 38.6554 5.792H37.2834C37.1528 5.32533 36.8961 4.95667 36.5134 4.686C36.1401 4.41533 35.6734 4.28 35.1134 4.28C34.3854 4.28 33.7974 4.532 33.3494 5.036C32.9014 5.53067 32.6774 6.23533 32.6774 7.15C32.6774 8.074 32.9014 8.788 33.3494 9.292C33.7974 9.796 34.3854 10.048 35.1134 10.048C35.6734 10.048 36.1401 9.91733 36.5134 9.656C36.8868 9.39467 37.1434 9.02133 37.2834 8.536H38.6554C38.4501 9.32 38.0394 9.95 37.4234 10.426C36.8074 10.8927 36.0374 11.126 35.1134 11.126C34.3854 11.126 33.7368 10.9627 33.1674 10.636C32.6074 10.3093 32.1688 9.84733 31.8514 9.25C31.5341 8.65267 31.3754 7.95267 31.3754 7.15ZM43.3933 1.242C44.4573 1.242 45.3767 1.44267 46.1513 1.844C46.9353 2.236 47.5327 2.80067 47.9433 3.538C48.3633 4.27533 48.5733 5.14333 48.5733 6.142C48.5733 7.14067 48.3633 8.00867 47.9433 8.746C47.5327 9.474 46.9353 10.034 46.1513 10.426C45.3767 10.8087 44.4573 11 43.3933 11H40.3553V1.242H43.3933ZM43.3933 9.95C44.6533 9.95 45.6147 9.61867 46.2773 8.956C46.94 8.284 47.2713 7.346 47.2713 6.142C47.2713 4.92867 46.9353 3.98133 46.2633 3.3C45.6007 2.61867 44.644 2.278 43.3933 2.278H41.6293V9.95H43.3933ZM53.5998 11.126C52.8811 11.126 52.2278 10.9627 51.6398 10.636C51.0611 10.3093 50.6038 9.84733 50.2678 9.25C49.9411 8.64333 49.7778 7.94333 49.7778 7.15C49.7778 6.366 49.9458 5.67533 50.2818 5.078C50.6271 4.47133 51.0938 4.00933 51.6818 3.692C52.2698 3.36533 52.9278 3.202 53.6558 3.202C54.3838 3.202 55.0418 3.36533 55.6298 3.692C56.2178 4.00933 56.6798 4.46667 57.0158 5.064C57.3611 5.66133 57.5338 6.35667 57.5338 7.15C57.5338 7.94333 57.3564 8.64333 57.0018 9.25C56.6564 9.84733 56.1851 10.3093 55.5878 10.636C54.9904 10.9627 54.3278 11.126 53.5998 11.126ZM53.5998 10.006C54.0571 10.006 54.4864 9.89867 54.8878 9.684C55.2891 9.46933 55.6111 9.14733 55.8538 8.718C56.1058 8.28867 56.2318 7.766 56.2318 7.15C56.2318 6.534 56.1104 6.01133 55.8678 5.582C55.6251 5.15267 55.3078 4.83533 54.9158 4.63C54.5238 4.41533 54.0991 4.308 53.6418 4.308C53.1751 4.308 52.7458 4.41533 52.3538 4.63C51.9711 4.83533 51.6631 5.15267 51.4298 5.582C51.1964 6.01133 51.0798 6.534 51.0798 7.15C51.0798 7.77533 51.1918 8.30267 51.4158 8.732C51.6491 9.16133 51.9571 9.48333 52.3398 9.698C52.7224 9.90333 53.1424 10.006 53.5998 10.006ZM60.7629 4.378V8.9C60.7629 9.27333 60.8422 9.53933 61.0009 9.698C61.1595 9.84733 61.4349 9.922 61.8269 9.922H62.7649V11H61.6169C60.9075 11 60.3755 10.8367 60.0209 10.51C59.6662 10.1833 59.4889 9.64667 59.4889 8.9V4.378H58.4949V3.328H59.4889V1.396H60.7629V3.328H62.7649V4.378H60.7629Z" fill="#474646"/>
</svg>
