<svg width="27" height="12" viewBox="0 0 27 12" fill="none" xmlns="http://www.w3.org/2000/svg">
<path d="M6.602 4.098C6.602 4.91 6.322 5.58667 5.762 6.128C5.21133 6.66 4.36667 6.926 3.228 6.926H1.352V11H0.0780001V1.242H3.228C4.32933 1.242 5.16467 1.508 5.734 2.04C6.31267 2.572 6.602 3.258 6.602 4.098ZM3.228 5.876C3.93733 5.876 4.46 5.722 4.796 5.414C5.132 5.106 5.3 4.66733 5.3 4.098C5.3 2.894 4.60933 2.292 3.228 2.292H1.352V5.876H3.228ZM18.0834 1.312V11H16.8094V3.776L13.5894 11H12.6934L9.45942 3.762V11H8.18542V1.312H9.55742L13.1414 9.32L16.7254 1.312H18.0834ZM20.006 3.426C20.0713 2.56733 20.4027 1.89533 21 1.41C21.5973 0.924666 22.372 0.681999 23.324 0.681999C23.9587 0.681999 24.5047 0.798666 24.962 1.032C25.4287 1.256 25.7787 1.564 26.012 1.956C26.2547 2.348 26.376 2.79133 26.376 3.286C26.376 3.86467 26.208 4.364 25.872 4.784C25.5453 5.204 25.116 5.47467 24.584 5.596V5.666C25.1907 5.81533 25.6713 6.10933 26.026 6.548C26.3807 6.98667 26.558 7.56067 26.558 8.27C26.558 8.802 26.4367 9.28267 26.194 9.712C25.9513 10.132 25.5873 10.4633 25.102 10.706C24.6167 10.9487 24.0333 11.07 23.352 11.07C22.3627 11.07 21.5507 10.8133 20.916 10.3C20.2813 9.77733 19.9267 9.04 19.852 8.088H21.084C21.1493 8.648 21.378 9.10533 21.77 9.46C22.162 9.81467 22.6847 9.992 23.338 9.992C23.9913 9.992 24.486 9.824 24.822 9.488C25.1673 9.14267 25.34 8.69933 25.34 8.158C25.34 7.458 25.1067 6.954 24.64 6.646C24.1733 6.338 23.4687 6.184 22.526 6.184H22.204V5.12H22.54C23.3987 5.11067 24.0473 4.97067 24.486 4.7C24.9247 4.42 25.144 3.99067 25.144 3.412C25.144 2.91733 24.9807 2.52067 24.654 2.222C24.3367 1.92333 23.8793 1.774 23.282 1.774C22.7033 1.774 22.2367 1.92333 21.882 2.222C21.5273 2.52067 21.3173 2.922 21.252 3.426H20.006Z" fill="#474646"/>
</svg>
